<svg width="147" height="39" viewBox="0 0 147 39" fill="none" xmlns="http://www.w3.org/2000/svg">
<path d="M29.4046 12.8271C25.2498 13.2519 19.313 13.865 19.0792 19.0562C18.8764 23.5397 23.7406 24.821 27.6953 25.8909C27.818 25.9241 27.9242 26.0012 27.9938 26.1075C28.0634 26.2138 28.0916 26.3419 28.073 26.4676L27.1635 32.6598C27.1464 32.7783 27.0888 32.8873 27.0004 32.9681C26.912 33.0489 26.7984 33.0967 26.6788 33.1033C25.038 33.1921 19.0407 33.1937 15.6718 28.8284C15.6365 28.7829 15.1009 28.0473 14.8864 27.6975C14.6285 27.2727 14.384 26.8324 14.1123 26.3766C14.1068 26.3659 14.0978 26.3574 14.0869 26.3524C14.076 26.3474 14.0637 26.3462 14.052 26.3491C14.0403 26.3519 14.0299 26.3586 14.0225 26.3681C14.0151 26.3775 14.0111 26.3892 14.0111 26.4013C14.0009 26.9361 14.0678 27.4695 14.2096 27.9853C14.3387 28.4478 14.5147 28.896 14.735 29.3227L14.3498 37.8607C14.3445 37.9844 14.2953 38.1022 14.211 38.1929C14.1266 38.2836 14.0127 38.3413 13.8897 38.3555L9.33901 38.8648C9.20489 38.8795 9.07027 38.8418 8.96343 38.7594C8.85659 38.677 8.78583 38.5564 8.76602 38.4229C8.76602 38.4229 7.22844 28.1736 7.16103 27.8264C7.06988 27.313 6.94241 26.8067 6.77957 26.3114C6.77676 26.3028 6.77179 26.295 6.76515 26.2888C6.7585 26.2826 6.7504 26.2783 6.74159 26.2761C6.73467 26.2742 6.72745 26.2738 6.72036 26.2748C6.71327 26.2758 6.70645 26.2783 6.70032 26.2819C6.69418 26.2856 6.68884 26.2905 6.68463 26.2963C6.68042 26.3021 6.67741 26.3087 6.67579 26.3157C6.55719 26.8234 6.47388 27.3387 6.42648 27.858C6.38689 28.2859 6.358 28.7102 6.34623 29.1365L4.44164 34.9879C4.42024 35.0538 4.38587 35.1148 4.34055 35.1672C4.29522 35.2196 4.23986 35.2624 4.17773 35.293C4.1156 35.3237 4.04796 35.3416 3.9788 35.3457C3.90963 35.3498 3.84035 35.34 3.77503 35.3169L0.346763 34.1085C0.239747 34.0706 0.148059 33.9987 0.0856647 33.9039C0.0232703 33.809 -0.00640687 33.6964 0.00115698 33.5831L1.7399 7.36143C1.74893 7.23745 1.80199 7.12078 1.88951 7.03249C1.97702 6.9442 2.09322 6.8901 2.21712 6.87997L28.2977 4.7797C28.4295 4.76925 28.5604 4.8094 28.6636 4.89198C28.7669 4.97457 28.8348 5.09338 28.8536 5.22426L29.8653 12.2376C29.875 12.3067 29.8707 12.3771 29.8526 12.4446C29.8345 12.512 29.8031 12.5751 29.7601 12.6301C29.7171 12.6852 29.6635 12.731 29.6024 12.7648C29.5413 12.7986 29.4741 12.8198 29.4046 12.8271Z" fill="#FF7A54"/>
<path d="M60.0738 5.31194L58.2495 31.5278C58.2407 31.6521 58.1876 31.7692 58.0997 31.8575C58.0118 31.9459 57.895 31.9998 57.7707 32.0092L31.6842 34.025C31.5523 34.0352 31.4214 33.9948 31.3184 33.9118C31.2153 33.8289 31.1477 33.7098 31.1294 33.5788L30.1402 26.5622C30.1306 26.4929 30.135 26.4224 30.1533 26.3548C30.1717 26.2873 30.2034 26.2242 30.2467 26.1692C30.2901 26.1142 30.344 26.0686 30.4054 26.035C30.4668 26.0014 30.5344 25.9806 30.604 25.9738C34.7594 25.5619 40.6984 24.968 40.9493 19.7768C41.1665 15.2954 36.3066 13.9992 32.3551 12.9132C32.2328 12.8791 32.1273 12.8015 32.0583 12.695C31.9893 12.5885 31.9617 12.4604 31.9806 12.3349L32.9093 6.14648C32.927 6.02788 32.9851 5.91903 33.0738 5.8384C33.1625 5.75776 33.2764 5.7103 33.3962 5.70407C35.037 5.62008 41.0338 5.63827 44.3888 10.0148C44.4241 10.0603 44.9575 10.7974 45.171 11.1478C45.4272 11.5758 45.6701 12.0145 45.9397 12.4719C45.9452 12.4826 45.9542 12.4912 45.9652 12.4962C45.9762 12.5012 45.9886 12.5023 46.0003 12.4994C46.012 12.4965 46.0224 12.4897 46.0297 12.4801C46.0371 12.4706 46.041 12.4588 46.0409 12.4467C46.0533 11.9122 45.9884 11.3787 45.8483 10.8627C45.7204 10.4004 45.5458 9.95227 45.3272 9.5253L45.7402 0.988912C45.7462 0.865306 45.7961 0.747896 45.8809 0.657782C45.9658 0.567668 46.0799 0.51076 46.203 0.497283L50.7558 0.0029776C50.8899 -0.0114194 51.0243 0.0267618 51.1308 0.109482C51.2372 0.192202 51.3075 0.313006 51.3266 0.446461C51.3266 0.446461 52.83 10.6979 52.8942 11.0467C52.9842 11.5605 53.1102 12.0673 53.2714 12.5633C53.2742 12.5719 53.2792 12.5795 53.2859 12.5856C53.2925 12.5917 53.3006 12.596 53.3093 12.5981C53.3231 12.6015 53.3376 12.5993 53.3498 12.592C53.3619 12.5847 53.3707 12.5728 53.3741 12.5591C53.4952 12.0523 53.5803 11.5377 53.6287 11.0189C53.6689 10.5942 53.6999 10.1683 53.7127 9.74356L55.6387 3.89483C55.6605 3.82894 55.6952 3.76808 55.7409 3.71583C55.7865 3.66358 55.8422 3.621 55.9046 3.59059C55.9669 3.56018 56.0348 3.54255 56.104 3.53876C56.1733 3.53497 56.2427 3.54508 56.308 3.5685L59.732 4.78714C59.8383 4.82551 59.9292 4.89752 59.9909 4.99223C60.0526 5.08694 60.0817 5.19918 60.0738 5.31194Z" fill="#FF7A54"/>
<path d="M31.8955 20.813C31.673 21.2902 31.1915 21.631 30.6741 21.7717C30.4412 21.8354 30.2008 21.8678 29.9594 21.868C29.7177 21.8678 29.4772 21.8354 29.2441 21.7717C28.7278 21.6304 28.2469 21.2902 28.0232 20.8125C28.0118 20.787 28.0058 20.7595 28.0056 20.7316C28.0055 20.7037 28.0112 20.6761 28.0224 20.6505C28.0336 20.6249 28.05 20.602 28.0706 20.5832C28.0912 20.5644 28.1155 20.5501 28.142 20.5413L28.249 20.506C28.2969 20.4903 28.3489 20.4925 28.3953 20.5121C28.4417 20.5318 28.4794 20.5676 28.5015 20.6129C28.5677 20.7455 28.66 20.8634 28.7728 20.9596C29.0852 21.2383 29.5319 21.3582 29.9626 21.3555C30.3933 21.3528 30.8394 21.2383 31.1524 20.9596C31.2649 20.8631 31.3571 20.7453 31.4237 20.6129C31.4457 20.5677 31.4834 20.532 31.5297 20.5124C31.576 20.4927 31.6278 20.4904 31.6756 20.506L31.7826 20.5413C31.8086 20.5508 31.8323 20.5656 31.8523 20.5847C31.8723 20.6038 31.8881 20.6269 31.8987 20.6524C31.9093 20.6779 31.9145 20.7054 31.9139 20.733C31.9134 20.7607 31.9071 20.7879 31.8955 20.813Z" fill="#FF7A54"/>
<path d="M34.1323 19.7296C34.4272 19.7296 34.6662 19.4906 34.6662 19.1958C34.6662 18.9009 34.4272 18.6619 34.1323 18.6619C33.8374 18.6619 33.5984 18.9009 33.5984 19.1958C33.5984 19.4906 33.8374 19.7296 34.1323 19.7296Z" fill="#FF7A54"/>
<path d="M25.4158 19.7296C25.7106 19.7296 25.9497 19.4906 25.9497 19.1958C25.9497 18.9009 25.7106 18.6619 25.4158 18.6619C25.1209 18.6619 24.8818 18.9009 24.8818 19.1958C24.8818 19.4906 25.1209 19.7296 25.4158 19.7296Z" fill="#FF7A54"/>
<path d="M76.9121 25.8001H75.2344V30.1431H66.5488V8.82513H76.8748C78.0012 8.82107 79.1174 9.03922 80.1594 9.46708C81.2013 9.89495 82.1487 10.5241 82.9472 11.3186C83.7456 12.1131 84.3796 13.0572 84.8126 14.097C85.2457 15.1368 85.4694 16.2517 85.4709 17.3781C85.4709 22.017 81.6503 25.8001 76.9121 25.8001ZM74.6095 19.4133H74.8405C76.3202 19.4133 77.1431 18.6235 77.1431 17.3728C77.1431 16.122 76.3202 15.3333 74.8405 15.3333H74.6127L74.6095 19.4133Z" fill="#FF7A54"/>
<path d="M94.6942 26.294L92.7536 30.1431H83.6731L94.6942 8.20032L105.683 30.1431H96.6029L94.6942 26.294Z" fill="#FF7A54"/>
<path d="M107.787 8.8252H124.896L119.237 22.4503H124.859V30.1485H107.294L112.788 16.5287H107.785L107.787 8.8252Z" fill="#FF7A54"/>
<path d="M146.739 21.1293C146.739 26.821 142.2 30.7691 136.839 30.7691C131.377 30.7691 127.002 26.886 127.002 21.0633V8.8252H135.687V20.9313C135.687 21.6892 136.247 22.1161 136.872 22.1161C137.53 22.1161 138.056 21.6232 138.056 20.8334V8.8252H146.741L146.739 21.1293Z" fill="#FF7A54"/>
</svg>
